<svg width="123" height="35" viewBox="0 0 123 35" fill="none" xmlns="http://www.w3.org/2000/svg">
<path d="M74.3407 19.307C74.8918 19.2133 74.9781 19.8759 74.8832 20.2697C74.7404 20.862 74.0509 20.7799 73.9902 20.186C73.9619 19.9089 73.9852 19.3676 74.3407 19.307Z" fill="#3B82F6"/>
<path d="M50.0252 27.1217C40.5354 31.233 30.0753 27.442 31.1485 15.6433C31.9888 6.40533 41.6777 3.18857 49.3385 6.52289L48.5066 11.1061C46.4885 10.6392 44.6695 9.84698 42.5349 10.1008C34.4422 11.0652 34.6751 24.5166 43.3668 24.06C43.6554 24.0447 44.9631 23.8692 44.9631 23.6289V19.4547H41.7571V15.7915C41.7571 15.4116 42.1519 15.7063 42.1789 15.7063H50.0252V27.1217Z" fill="#3B82F6"/>
<path d="M94.4035 11.2765V22.266C94.4035 22.4806 94.8877 23.6034 95.075 23.8028C95.9795 24.7654 98.9037 24.3633 99.658 23.462C99.8318 23.2542 99.6344 23.1741 99.6344 23.1178V11.2765H104.697C104.801 15.9551 104.56 20.661 104.69 25.3396C104.702 25.7536 105.184 28.3144 104.612 28.3144H99.9718L99.8014 26.4402C97.3193 29.6774 91.1502 29.6417 89.8003 25.3805C89.667 24.9596 89.3413 23.6477 89.3413 23.2882V11.2765H94.4035Z" fill="#3B82F6"/>
<path d="M82.3336 11.452C79.9375 11.2475 78.7057 10.5132 76.0498 11.2271C70.856 12.6225 69.3593 19.6523 71.3082 24.118C72.999 27.989 78.8829 29.5309 81.5793 25.9274C81.3431 26.7077 81.5456 27.5784 81.3751 28.3604C80.658 31.6402 74.7285 30.5344 72.4759 29.6808L71.1175 33.4207C75.2128 35.2982 81.6013 36.0104 84.782 32.1428C85.4839 31.2892 86.6415 29.1441 86.6415 28.0571V11.2765C85.2072 11.2731 83.7746 11.5764 82.3319 11.4537L82.3336 11.452ZM81.4106 22.6067C81.4106 23.3274 79.406 23.876 78.812 23.8658C75.5098 23.8113 75.1403 19.5859 76.0042 17.1477C76.9154 14.5784 79.0736 14.6176 81.4106 15.0248V22.6067Z" fill="#3B82F6"/>
<path d="M61.928 10.9289C61.1535 10.8659 60.0449 10.8931 59.2687 10.9817C50.0084 12.0432 49.8987 27.4523 58.9279 28.6109C72.1063 30.301 71.9443 11.7382 61.928 10.9289ZM63.7842 21.8451C62.7717 26.1216 57.8817 25.5287 57.4514 21.2403C57.2506 19.24 57.416 15.3315 59.9369 14.8936C63.8449 14.2172 64.4574 19.0015 63.7842 21.8451Z" fill="#3B82F6"/>
<path d="M116.235 10.9562C104.553 9.71412 103.201 27.5954 114.083 28.633C116.658 28.8784 119.809 28.4558 121.894 26.8491L120.725 23.3734C117.954 25.2714 111.986 25.7621 111.784 21.1585H121.823C121.85 21.1585 122.245 21.4532 122.245 21.0733V18.1768C122.245 14.8562 119.579 11.3123 116.235 10.9562ZM117.689 17.9213H111.784C111.691 13.8168 118.123 13.4727 117.689 17.9213Z" fill="#3B82F6"/>
<path d="M0.768121 12.3867C1.76989 13.3741 2.50503 12.7887 2.7355 11.596C2.93905 10.5421 2.86503 9.4848 3.13503 8.37874C4.56913 2.50439 10.9532 1.29655 14.9552 5.64343C20.9339 12.1377 17.4677 21.6196 12.8827 27.8001C11.1038 30.1981 7.85033 31.9417 4.91567 30.4025C3.24521 29.5261 3.46895 28.1534 2.80026 26.7983C2.7111 26.6175 2.6169 26.5292 2.42092 26.4636C1.44102 29.622 2.9525 32.5347 6.18744 33.3355C10.1533 34.3171 13.3563 31.8467 15.5255 28.8448C20.7783 21.5733 23.9712 11.4261 17.3095 3.87709C12.7162 -1.32773 4.93334 -1.56829 1.36616 4.84521C0.402236 6.57791 -0.824112 10.8197 0.767282 12.3875L0.768121 12.3867Z" fill="#3B82F6"/>
<path d="M6.79454 13.1739C8.68537 14.5744 12.0709 14.9487 11.6503 18.0726C11.3534 20.2805 9.07144 20.728 7.3236 21.3159C6.75837 21.3243 7.00314 19.791 6.95267 19.3654C6.79202 18.0238 5.62034 17.5544 4.73212 18.6403C4.01549 19.5168 4.40577 20.3444 4.16184 21.3504C3.97259 22.131 3.32157 22.8072 3.25764 23.5583C3.14241 24.9083 4.00287 25.8537 5.3823 25.4306C6.45809 25.1009 6.83575 24.058 7.63397 23.3926C9.43901 21.887 11.9632 22.8896 13.134 20.4815C14.2283 18.229 13.8582 14.5399 12.3434 12.5456C11.4627 11.3857 10.0623 10.7507 9.33303 9.41581C8.11005 7.17592 9.52481 6.53752 11.4459 7.63938C13.7127 8.93974 14.9694 11.6809 15.8794 14.015C15.998 14.0352 16.0014 13.8662 16.0224 13.782C16.8972 10.1737 12.5654 4.28838 8.62397 5.12108C4.03652 6.09089 3.21979 13.7938 7.15874 15.9639C7.41192 16.1035 8.08229 16.4812 8.20846 16.0581C8.43388 15.3011 6.81977 14.0167 6.79538 13.1748L6.79454 13.1739Z" fill="#3B82F6"/>
<path d="M12.8195 23.232C12.404 23.6088 11.0153 24.73 10.8875 25.1329C10.8538 25.2389 10.8151 25.3398 10.8311 25.4534C11.8573 25.4323 13.1955 24.1597 12.9322 23.0991C12.806 23.0671 12.8733 23.1824 12.8195 23.2311V23.232Z" fill="#3B82F6"/>
</svg>
